<?xml version="1.0" encoding="utf-8"?>
<!-- Generator: Adobe Illustrator 17.0.0, SVG Export Plug-In . SVG Version: 6.00 Build 0)  -->
<!DOCTYPE svg PUBLIC "-//W3C//DTD SVG 1.1//EN" "http://www.w3.org/Graphics/SVG/1.1/DTD/svg11.dtd">
<svg version="1.1" id="Capa_1" xmlns="http://www.w3.org/2000/svg" xmlns:xlink="http://www.w3.org/1999/xlink" x="0px" y="0px"
	 width="1024px" height="768px" viewBox="0 0 1024 768" enable-background="new 0 0 1024 768" xml:space="preserve">
<g>
	<g>
		<path d="M880.966,369.467c8.284,0,14.998-6.717,14.998-14.998v-95.832c0.002-8.281-6.712-14.997-14.994-14.998l-249.159-0.06
			c-0.01,0-0.02,0-0.031,0c-30.228,0-59.749,12.333-80.992,33.837l-23.44,23.725l-35.937-35.944
			c-13.923-13.923-32.436-21.594-52.128-21.595l-296.249-0.022c-3.978,0-7.792,1.581-10.605,4.393
			c-2.814,2.812-4.393,6.628-4.393,10.605v297.285c0,8.283,6.715,14.998,14.998,14.998h133.778
			c2.338,8.403,6.792,16.333,13.384,22.93c10.222,10.224,23.652,15.339,37.083,15.339c0.171,0,0.341-0.01,0.51-0.012
			c-0.002,0.181-0.014,0.361-0.014,0.544c-0.001,14.004,5.449,27.172,15.351,37.077c9.901,9.904,23.068,15.361,37.074,15.364
			c0.003,0,0.005,0,0.008,0c0.171,0,0.341-0.01,0.512-0.012c-0.002,0.174-0.012,0.345-0.012,0.519
			c-0.003,14.005,5.449,27.172,15.351,37.078c9.901,9.906,23.067,15.361,37.072,15.363c0.003,0,0.006,0,0.009,0
			c0.171,0,0.34-0.01,0.511-0.012c-0.001,0.174-0.012,0.346-0.012,0.52c-0.001,14.005,5.449,27.172,15.351,37.077
			s23.067,15.361,37.072,15.364c0.004,0,0.006,0,0.01,0c11.719,0,22.846-3.834,31.971-10.884
			c9.366,7.18,20.613,10.784,31.866,10.784c13.423,0,26.847-5.107,37.069-15.326c10.354-10.351,15.457-23.994,15.327-37.593
			c0.181,0.001,0.361,0.013,0.544,0.013c0.003,0,0.006,0,0.01,0c14.001,0,27.165-5.451,37.068-15.349
			c10.354-10.352,15.457-23.994,15.325-37.594c0.182,0.002,0.363,0.013,0.544,0.013c0.003,0,0.005,0,0.008,0
			c14.001,0,27.166-5.454,37.069-15.351c10.354-10.351,15.457-23.992,15.325-37.593c0.182,0.001,0.363,0.013,0.544,0.013
			c0.003,0,0.005,0,0.008,0c14.001,0,27.166-5.454,37.069-15.351c6.472-6.471,11.029-14.34,13.423-22.921h121.719
			c8.284,0,14.998-6.717,14.998-14.998v-86.406c0-8.281-6.715-14.998-14.998-14.998s-14.998,6.717-14.998,14.998v71.403H814.97
			V277.475c0-1.335-0.192-2.623-0.519-3.856l51.514,0.012v80.836C865.967,362.75,872.681,369.467,880.966,369.467z M327.28,579.154
			c-0.002,0-0.003,0-0.005,0c-5.994-0.002-11.625-2.337-15.864-6.576c-4.237-4.237-6.57-9.871-6.568-15.864
			c0.002-5.992,2.336-11.625,6.574-15.862l31.77-31.758c4.374-4.372,10.116-6.558,15.861-6.558c5.746,0,11.493,2.189,15.867,6.562
			c8.745,8.749,8.742,22.983-0.006,31.728l-31.768,31.759C338.904,576.821,333.27,579.154,327.28,579.154z M380.209,632.102
			c-0.001,0-0.001,0-0.003,0c-5.994-0.002-11.625-2.337-15.862-6.576c-4.237-4.237-6.57-9.87-6.568-15.864
			c0.001-5.992,2.337-11.625,6.574-15.862l31.768-31.759c4.237-4.236,9.87-6.568,15.861-6.568c0,0,0.003,0,0.005,0
			c5.994,0.002,11.625,2.337,15.864,6.574v0.002c8.746,8.749,8.743,22.981-0.005,31.726l-31.77,31.758
			C391.834,629.77,386.2,632.102,380.209,632.102z M417.272,678.477c-8.746-8.749-8.745-22.984,0.006-31.729l31.77-31.758
			c4.237-4.236,9.87-6.568,15.861-6.568c0.002,0,0.003,0,0.005,0c5.992,0,11.625,2.336,15.862,6.573
			c8.745,8.75,8.743,22.984-0.005,31.729l-31.77,31.758C440.254,687.228,426.02,687.225,417.272,678.477z M507.451,725.915
			c-0.003,0.003-0.008,0.006-0.01,0.009c-0.003,0.003-0.006,0.008-0.011,0.01l-5.499,5.497c-4.237,4.236-9.868,6.568-15.859,6.568
			c-0.002,0-0.003,0-0.005,0c-5.994-0.001-11.625-2.337-15.864-6.576c-4.237-4.238-6.57-9.871-6.568-15.864
			c0.001-5.992,2.335-11.625,6.574-15.862l31.77-31.758c4.237-4.236,9.87-6.57,15.862-6.57c0.002,0,0.002,0,0.002,0
			c5.995,0.002,11.626,2.337,15.864,6.574v0.002c4.237,4.237,6.57,9.87,6.568,15.864c-0.001,5.992-2.337,11.625-6.574,15.862
			L507.451,725.915z M565.772,731.357c-6.928,6.925-17.286,8.343-25.641,4.303l14.776-14.772c5.625-5.623,9.81-12.3,12.381-19.584
			C574.487,710.109,573.981,723.15,565.772,731.357z M724.617,572.566c-4.236,4.234-9.868,6.568-15.861,6.568
			c-0.002,0-0.003,0-0.003,0c-5.994-0.002-11.626-2.337-15.865-6.576l-94.842-94.854c-5.857-5.859-15.352-5.857-21.211-0.001
			c-2.929,2.928-4.393,6.766-4.393,10.605c0,3.838,1.464,7.677,4.393,10.605l94.84,94.852c8.746,8.749,8.743,22.983-0.005,31.728
			c-4.237,4.236-9.87,6.57-15.862,6.57c-0.002,0-0.003,0-0.003,0c-5.994-0.002-11.625-2.337-15.864-6.576l-94.843-94.854
			c-5.857-5.857-15.352-5.856-21.211-0.001c-5.857,5.857-5.859,15.352,0,21.211l94.842,94.852c8.746,8.75,8.745,22.984-0.004,31.729
			c-4.237,4.236-9.868,6.568-15.861,6.568c-0.002,0-0.003,0-0.003,0c-5.994-0.002-11.626-2.337-15.864-6.575l-30.15-30.16
			c-0.715-0.717-1.488-1.342-2.299-1.884c-9.857-9.67-22.863-14.998-36.693-15.001c-0.003,0-0.005,0-0.008,0
			c-0.18,0-0.357,0.01-0.536,0.014c0.137-13.599-4.962-27.241-15.313-37.597v-0.002c-9.901-9.904-23.068-15.36-37.072-15.361
			c-0.003,0-0.006,0-0.009,0c-0.179,0-0.355,0.012-0.534,0.013c0.137-13.599-4.962-27.241-15.313-37.597
			c-9.901-9.904-23.067-15.361-37.072-15.364c-0.005,0-0.006,0-0.01,0c-0.179,0-0.355,0.012-0.534,0.013
			c0.137-13.599-4.962-27.241-15.313-37.597v-0.001c-20.44-20.445-53.704-20.454-74.151-0.012l-31.77,31.758
			c-6.148,6.147-10.434,13.456-12.886,21.225h-38.305V372.717c0-8.283-6.715-14.998-14.998-14.998s-14.998,6.717-14.998,14.998
			V540.86h-50.997V273.573l281.249,0.021c11.679,0.001,22.66,4.551,30.918,12.808l36.066,36.073l-30.198,30.565
			c-21.033,21.288-20.83,55.726,0.45,76.768c10.449,10.33,24.249,15.69,38.185,15.69c9.576,0,19.218-2.532,27.88-7.719
			l49.408-29.587l132.631,132.643c3.636,3.636,5.857,8.304,6.417,13.341c-0.062,0.552-0.101,1.113-0.101,1.682
			c0,0.76,0.075,1.502,0.185,2.232C730.788,563.561,728.526,568.658,724.617,572.566z M784.975,277.475V540.86h-26.221
			c-2.5-7.924-6.876-15.187-12.918-21.232L618.524,392.306l19.381-11.605h96.768c8.284,0,14.998-6.717,14.998-14.998
			c0-8.283-6.715-14.998-14.998-14.998H633.758c-2.715,0-5.378,0.737-7.707,2.132l-98.881,59.214
			c-9.517,5.701-21.676,4.232-29.563-3.568c-9.522-9.414-9.613-24.826-0.201-34.351l74.722-75.631
			c15.648-15.84,37.389-24.922,59.653-24.922c0.006,0,0.016,0,0.023,0l153.692,0.038
			C785.167,274.847,784.975,276.137,784.975,277.475z"/>
	</g>
</g>
<g>
	<g>
		<path d="M891.571,396.609c-2.79-2.79-6.66-4.395-10.603-4.395c-3.945,0-7.815,1.604-10.603,4.395
			c-2.79,2.79-4.395,6.66-4.395,10.603c0,3.96,1.605,7.815,4.395,10.602c2.79,2.805,6.66,4.396,10.603,4.396
			c3.945,0,7.815-1.592,10.603-4.396c2.79-2.789,4.395-6.645,4.395-10.602C895.966,403.269,894.361,399.399,891.571,396.609z"/>
	</g>
</g>
<g>
	<g>
		<path d="M234.63,305.867c-2.79-2.79-6.66-4.395-10.603-4.395c-3.945,0-7.815,1.604-10.603,4.395
			c-2.79,2.79-4.395,6.66-4.395,10.603s1.605,7.815,4.395,10.602c2.79,2.79,6.66,4.396,10.603,4.396
			c3.945,0,7.815-1.605,10.603-4.396c2.79-2.788,4.395-6.658,4.395-10.602S237.42,308.657,234.63,305.867z"/>
	</g>
</g>
<g>
	<g>
		<path d="M619.991,0H404.009c-24.811,0-44.995,20.185-44.995,44.995v110.991c0,24.811,20.185,44.995,44.995,44.995h52.282
			l45.102,45.102c2.93,2.928,6.768,4.393,10.605,4.393s7.678-1.466,10.605-4.393l45.102-45.102h52.282
			c24.811,0,44.995-20.185,44.995-44.995V44.995C664.986,20.185,644.8,0,619.991,0z M634.989,155.986
			c0,8.269-6.729,14.998-14.998,14.998h-58.495c-3.978,0-7.794,1.581-10.605,4.393L512,214.268l-38.89-38.89
			c-2.812-2.812-6.628-4.393-10.605-4.393h-58.495c-8.271,0-14.998-6.729-14.998-14.998V44.995c0-8.271,6.729-14.998,14.998-14.998
			h215.981c8.269,0,14.998,6.729,14.998,14.998L634.989,155.986L634.989,155.986z"/>
	</g>
</g>
<g>
	<g>
		<path d="M452.11,89.767c-2.79-2.805-6.66-4.395-10.603-4.395c-3.96,0-7.815,1.59-10.603,4.395
			c-2.79,2.79-4.395,6.646-4.395,10.603c0,3.945,1.605,7.815,4.395,10.603c2.79,2.79,6.66,4.395,10.603,4.395
			s7.815-1.605,10.603-4.395c2.79-2.79,4.395-6.66,4.395-10.603C456.505,96.411,454.9,92.557,452.11,89.767z"/>
	</g>
</g>
<g>
	<g>
		<path d="M593.097,89.767c-2.79-2.805-6.66-4.395-10.603-4.395c-3.945,0-7.815,1.59-10.604,4.395
			c-2.79,2.79-4.395,6.646-4.395,10.603c0,3.945,1.605,7.815,4.395,10.603c2.79,2.788,6.66,4.395,10.604,4.395
			c3.945,0,7.815-1.605,10.603-4.395c2.79-2.79,4.395-6.66,4.395-10.603C597.492,96.411,595.887,92.557,593.097,89.767z"/>
	</g>
</g>
<path d="M542.531,101.618c-4.722-4.379-12.459-8.11-23.591-11.363V64.896c2.58,0.482,4.766,1.153,6.531,2.008
	c0.898,0.435,1.5,0.807,1.893,1.089c-0.051,0.075-0.105,0.155-0.165,0.239c-1.95,2.763-2.897,5.327-2.897,7.839
	c0,4.314,1.924,6.929,3.533,8.359c2.144,1.909,4.736,2.917,7.497,2.917c3.71,0,6.913-1.673,9.022-4.711
	c1.769-2.552,2.666-5.372,2.666-8.382c0-5.542-3.049-10.789-9.063-15.593c-4.697-3.751-11.079-6.167-19.017-7.207V40.926h-14.707
	V51.5c-6.831,1.048-12.902,3.524-18.097,7.388c-6.899,5.133-10.397,12.415-10.397,21.644c0,5.764,1.836,11.29,5.457,16.424
	c3.454,4.902,10.815,9.073,23.038,13.019v31.007c-3.487-0.698-6.5-1.815-8.995-3.339c-1.735-1.061-2.771-1.908-3.384-2.514
	c3.423-2.558,5.282-6.139,5.282-10.268c0-3.132-1.124-6.048-3.251-8.435c-2.273-2.548-5.305-3.895-8.768-3.895
	c-2.333,0-5.748,0.742-8.758,4.273c-2.219,2.6-3.345,5.651-3.345,9.069c0,8.19,3.672,15.224,10.916,20.907
	c5.691,4.462,12.504,7.104,20.303,7.883v20.56h14.707v-20.857c9.512-1.399,17.025-4.584,22.375-9.496
	c6.416-5.894,9.669-13.652,9.669-23.061C550.984,113.618,548.141,106.825,542.531,101.618z M532.479,128.147
	c0,3.355-1.498,6.305-4.579,9.017c-2.278,2.003-5.28,3.35-8.96,4.025v-26.542c6.714,2.691,9.36,4.804,10.392,5.958
	C531.45,122.973,532.479,125.44,532.479,128.147z M492.431,75.328c0-3.098,1.142-5.268,3.701-7.034
	c2.104-1.451,4.817-2.545,8.102-3.271v20.691c-3.778-1.355-6.658-2.786-8.597-4.275C493.419,79.735,492.431,77.851,492.431,75.328z"
	/>
</svg>
